# xmcd CD database file
#
# Track frame offsets:
#	150
#	11546
#	36111
#	55145
#	78631
#	98585
#	118521
#	135166
#	156095
#	180190
#	203592
#	225270
#	252425
#	280004
#	301107
#
# Disc length: 4365 seconds
#
# Revision: 0
# Processed by: cddbd v1.5.2PL0 Copyright (c) Steve Scherf et al.
# Submitted via: CDex 1.51
#
DISCID=a7110b0f
DTITLE=THE EAGLES - Anka Phaway Native Roots
DYEAR=1900
DGENRE=New Age
TTITLE0=01.AMAZONAS
TTITLE1=02.RUMINAHU
TTITLE2=03.ILLAMPU
TTITLE3=04.AKUCHIMAY
TTITLE4=05.ISLADEKSOL
TTITLE5=06.SUMACLLAJTA
TTITLE6=07.MAMAFLORENCIA
TTITLE7=08.MUNA QKILLA
TTITLE8=09.KAYPIM
TTITLE9=10.PERDONAME AMOR
TTITLE10=11.WAYRA
TTITLE11=12.SISAHU
TTITLE12=13.QARWA YAKU
TTITLE13=14.DRUMS DANCE
TTITLE14=15.CHIRAPAQ
EXTD=
EXTT0=
EXTT1=
EXTT2=
EXTT3=
EXTT4=
EXTT5=
EXTT6=
EXTT7=
EXTT8=
EXTT9=
EXTT10=
EXTT11=
EXTT12=
EXTT13=
EXTT14=
PLAYORDER=
